<svg width="1200" height="900" viewBox="0 0 1200 900" fill="none" xmlns="http://www.w3.org/2000/svg">
  <rect width="1200" height="900" fill="#F1ECE4"/>
  <rect y="560" width="1200" height="340" fill="#C9B59A"/>
  <rect y="470" width="1200" height="130" fill="#9CC7D4"/>
  <circle cx="170" cy="155" r="68" fill="#FFE0A8"/>
  <rect x="130" y="300" width="180" height="260" rx="8" fill="#C97B63"/>
  <rect x="345" y="244" width="210" height="316" rx="8" fill="#E2A25E"/>
  <rect x="598" y="279" width="190" height="281" rx="8" fill="#CC8F6C"/>
  <rect x="824" y="221" width="248" height="339" rx="8" fill="#7C6B87"/>
  <rect x="175" y="358" width="88" height="122" fill="#F4E9D8"/>
  <rect x="391" y="303" width="118" height="74" fill="#F4E9D8"/>
  <rect x="391" y="401" width="118" height="74" fill="#F4E9D8"/>
  <rect x="643" y="337" width="100" height="125" fill="#F4E9D8"/>
  <rect x="874" y="275" width="148" height="82" fill="#F4E9D8"/>
  <rect x="874" y="388" width="148" height="82" fill="#F4E9D8"/>
  <path d="M0 622H1200" stroke="#9B7D57" stroke-width="18"/>
</svg>
